<svg xmlns="http://www.w3.org/2000/svg" viewBox="0 0 500 500"><g id="freepik--background-complete--inject-1"><rect y="382.4" width="500" height="0.25" style="fill:#ebebeb"></rect><rect x="416.78" y="398.49" width="33.12" height="0.25" style="fill:#ebebeb"></rect><rect x="333.38" y="398.49" width="70.81" height="0.25" style="fill:#ebebeb"></rect><rect x="275.14" y="389.21" width="19.19" height="0.25" style="fill:#ebebeb"></rect><rect x="52.46" y="390.89" width="34.29" height="0.25" style="fill:#ebebeb"></rect><rect x="95.65" y="390.89" width="62.35" height="0.25" style="fill:#ebebeb"></rect><rect x="188.33" y="395.11" width="36.81" height="0.25" style="fill:#ebebeb"></rect><path d="M237,337.8H43.91a5.71,5.71,0,0,1-5.7-5.71V60.66A5.71,5.71,0,0,1,43.91,55H237a5.71,5.71,0,0,1,5.71,5.71V332.09A5.71,5.71,0,0,1,237,337.8ZM43.91,55.2a5.46,5.46,0,0,0-5.45,5.46V332.09a5.46,5.46,0,0,0,5.45,5.46H237a5.47,5.47,0,0,0,5.46-5.46V60.66A5.47,5.47,0,0,0,237,55.2Z" style="fill:#ebebeb"></path><path d="M453.31,337.8H260.21a5.72,5.72,0,0,1-5.71-5.71V60.66A5.72,5.72,0,0,1,260.21,55h193.1A5.71,5.71,0,0,1,459,60.66V332.09A5.71,5.71,0,0,1,453.31,337.8ZM260.21,55.2a5.47,5.47,0,0,0-5.46,5.46V332.09a5.47,5.47,0,0,0,5.46,5.46h193.1a5.47,5.47,0,0,0,5.46-5.46V60.66a5.47,5.47,0,0,0-5.46-5.46Z" style="fill:#ebebeb"></path><rect x="75.83" y="75.65" width="135.7" height="117.57" transform="translate(287.37 268.87) rotate(180)" style="fill:#e6e6e6"></rect><rect x="72.82" y="75.65" width="135.7" height="117.57" transform="translate(281.33 268.87) rotate(180)" style="fill:#f5f5f5"></rect><rect x="86.08" y="72" width="109.17" height="124.87" transform="translate(275.1 -6.23) rotate(90)" style="fill:#fafafa"></rect><polygon points="153.02 189.02 175.65 79.85 128.31 79.85 105.69 189.02 153.02 189.02" style="fill:#fff"></polygon><rect x="24.79" y="133.3" width="109.17" height="2.28" transform="translate(213.81 55.07) rotate(90)" style="fill:#e6e6e6"></rect><rect x="75.06" y="163.8" width="131.22" height="5.64" transform="translate(281.33 333.25) rotate(180)" style="fill:#f5f5f5"></rect><rect x="205.25" y="282.47" width="21.67" height="93.97" transform="translate(432.16 658.92) rotate(180)" style="fill:#f0f0f0"></rect><rect x="63.72" y="376.44" width="159.03" height="5.95" transform="translate(286.48 758.84) rotate(180)" style="fill:#f0f0f0"></rect><rect x="59.56" y="282.47" width="145.68" height="93.97" style="fill:#f5f5f5"></rect><rect x="68.08" y="294.04" width="128.65" height="30.82" style="fill:#f0f0f0"></rect><rect x="68.08" y="334.06" width="128.65" height="30.82" style="fill:#f0f0f0"></rect><path d="M97.73,311.56h69.35a2.12,2.12,0,0,0,2.11-2.11h0a2.13,2.13,0,0,0-2.11-2.12H97.73a2.13,2.13,0,0,0-2.11,2.12h0A2.12,2.12,0,0,0,97.73,311.56Z" style="fill:#f5f5f5"></path><path d="M97.73,351.58h69.35a2.12,2.12,0,0,0,2.11-2.11h0a2.12,2.12,0,0,0-2.11-2.12H97.73a2.12,2.12,0,0,0-2.11,2.12h0A2.12,2.12,0,0,0,97.73,351.58Z" style="fill:#f5f5f5"></path><path d="M431.62,137.1c12.34-3.4,16.56-25.79-14.62-34.93C423.88,124.69,410.11,143,431.62,137.1Z" style="fill:#ebebeb"></path><path d="M434.35,146.82c9.73-10.51.53-34.29-34.51-24.57C419.66,139.59,417.4,165.15,434.35,146.82Z" style="fill:#e0e0e0"></path><path d="M424.75,149.52c-8.14-8.06,3.52-36.11,30.4-23.11C439.92,141,439,163.57,424.75,149.52Z" style="fill:#fafafa"></path><polygon points="416.63 165.22 440.32 165.22 442.11 149.19 414.85 149.19 416.63 165.22" style="fill:#e6e6e6"></polygon><path d="M414.58,152.06h27.8a1.77,1.77,0,0,0,1.77-1.77h0a1.77,1.77,0,0,0-1.77-1.77h-27.8a1.77,1.77,0,0,0-1.77,1.77h0A1.77,1.77,0,0,0,414.58,152.06Z" style="fill:#e6e6e6"></path><polygon points="217.31 355.25 217.31 355.25 217.31 355.25 217.31 355.25 217.31 328.1 239.92 328.1 239.92 328.1 239.92 328.1 239.92 328.1 239.92 300.96 262.54 300.96 262.54 300.96 262.54 273.81 285.15 273.81 285.15 246.66 307.77 246.66 307.77 246.66 307.77 246.66 307.77 246.66 307.77 219.52 330.38 219.52 330.38 219.52 330.38 219.52 330.38 219.52 330.38 192.37 353 192.37 353 192.37 353 192.37 353 192.37 353 165.22 375.62 165.22 500 165.22 500 382.4 217.31 382.4 194.69 382.4 194.69 355.25 217.31 355.25" style="fill:#fafafa"></polygon><polygon points="341.69 355.25 341.69 355.25 341.69 355.25 341.69 355.25 341.69 328.1 364.31 328.1 364.31 328.1 364.31 328.1 364.31 328.1 364.31 300.96 386.92 300.96 386.92 300.96 386.92 273.81 409.54 273.81 409.54 246.66 432.15 246.66 432.15 246.66 432.15 246.66 432.15 246.66 432.15 219.52 454.77 219.52 454.77 219.52 454.77 219.52 454.77 219.52 454.77 192.37 477.38 192.37 477.38 192.37 477.38 192.37 477.38 192.37 477.38 165.22 500 165.22 500 192.37 500 382.4 341.69 382.4 319.08 382.4 319.08 355.25 341.69 355.25" style="fill:#e0e0e0"></polygon><rect x="193.36" y="355.25" width="125.72" height="8.14" style="fill:#ebebeb"></rect><rect x="215.98" y="328.1" width="125.72" height="8.14" style="fill:#ebebeb"></rect><rect x="238.59" y="300.96" width="125.72" height="8.14" style="fill:#ebebeb"></rect><rect x="261.21" y="273.81" width="125.72" height="8.14" style="fill:#ebebeb"></rect><rect x="283.82" y="246.66" width="125.72" height="8.14" style="fill:#ebebeb"></rect><rect x="306.44" y="219.52" width="125.72" height="8.14" style="fill:#ebebeb"></rect><rect x="329.05" y="192.37" width="125.72" height="8.14" style="fill:#ebebeb"></rect><rect x="351.67" y="165.22" width="125.72" height="8.14" style="fill:#ebebeb"></rect></g><g id="freepik--Shadow--inject-1"><ellipse id="freepik--path--inject-1" cx="250" cy="416.24" rx="193.89" ry="11.32" style="fill:#f5f5f5"></ellipse></g><g id="freepik--Folder--inject-1"><path d="M307.84,229.55h0a12.7,12.7,0,0,1,11.71-8.33H399.6A9.46,9.46,0,0,1,409.32,232L388.64,405.51a12.58,12.58,0,0,1-12.27,10.73h-254a9.44,9.44,0,0,1-9.71-10.73L130,259.73A12.58,12.58,0,0,1,142.27,249H280.49A29.67,29.67,0,0,0,307.84,229.55Z" style="fill:#0081EC"></path><polygon points="117.23 408.25 382.64 408.25 397.76 229.67 132.36 229.67 117.23 408.25" style="fill:#f0f0f0"></polygon><polygon points="117.23 408.25 382.64 408.25 393.58 229.67 132.36 229.67 117.23 408.25" style="fill:#e0e0e0"></polygon><polygon points="117.23 408.25 382.64 408.25 391.76 224 126.36 224 117.23 408.25" style="fill:#f0f0f0"></polygon><polygon points="117.23 408.25 382.64 408.25 386.25 224 126.36 224 117.23 408.25" style="fill:#e0e0e0"></polygon><polygon points="117.23 408.25 382.64 408.25 384.22 219 118.82 219 117.23 408.25" style="fill:#f0f0f0"></polygon><polygon points="117.23 408.25 382.64 408.25 377.19 222.58 113.5 222.58 117.23 408.25" style="fill:#e0e0e0"></polygon><polygon points="117.23 408.25 382.64 408.25 374.76 224 109.36 224 117.23 408.25" style="fill:#f0f0f0"></polygon><polygon points="117.23 408.25 382.64 408.25 370.09 226.78 104.69 226.78 117.23 408.25" style="fill:#e0e0e0"></polygon><polygon points="117.23 408.25 382.64 408.25 368.09 228.33 102.69 228.33 117.23 408.25" style="fill:#f0f0f0"></polygon><path d="M250.14,240.82h0a8.65,8.65,0,0,1,9.05-8.53h80.05a14,14,0,0,1,13.14,11l31.63,162c1.18,6.07-2.78,11-8.85,11h-254c-6.08,0-12-4.93-13.15-11L81.92,271.74c-1.18-6.07,2.78-11,8.85-11H229C241,260.74,249.73,252.48,250.14,240.82Z" style="fill:#0081EC"></path><path d="M250.14,240.82h0a8.65,8.65,0,0,1,9.05-8.53h80.05a14,14,0,0,1,13.14,11l31.63,162c1.18,6.07-2.78,11-8.85,11h-254c-6.08,0-12-4.93-13.15-11L81.92,271.74c-1.18-6.07,2.78-11,8.85-11H229C241,260.74,249.73,252.48,250.14,240.82Z" style="opacity:0.2"></path></g></svg>